<?xml version="1.0" encoding="UTF-8" standalone="no"?> <svg width="48" height="48" viewBox="0 0 48 48" fill="none" xmlns="http://www.w3.org/2000/svg">
<path d="M43 36V12C43 10.9391 42.5786 9.92172 41.8284 9.17157C41.0783 8.42143 40.0609 8 39 8H9C7.93913 8 6.92172 8.42143 6.17157 9.17157C5.42143 9.92172 5 10.9391 5 12V36H43Z" fill="#EAEFF0"/>
<path d="M43 34.0002L6.417 8.96924C5.97464 9.34105 5.6187 9.80486 5.37397 10.3283C5.12924 10.8518 5.00162 11.4224 5 12.0002V36.0002H43V34.0002Z" fill="#D9E1E2"/>
<path d="M41 40H7C5.67392 40 4.40215 39.4732 3.46447 38.5355C2.52678 37.5979 2 36.3261 2 35V35C2 34.7348 2.10536 34.4804 2.29289 34.2929C2.48043 34.1054 2.73478 34 3 34H45C45.2652 34 45.5196 34.1054 45.7071 34.2929C45.8946 34.4804 46 34.7348 46 35C46 36.3261 45.4732 37.5979 44.5355 38.5355C43.5979 39.4732 42.3261 40 41 40V40Z" fill="#2D4A60"/>
<path d="M38 19H34V30H38V19Z" fill="#FAC100"/>
<path d="M30 23H26V30H30V23Z" fill="#FD3730"/>
<path d="M22 21H18V30H22V21Z" fill="#00CF66"/>
<path d="M14 25H10V30H14V25Z" fill="#009AE0"/>
<path d="M45 33H44V12C43.9984 10.6744 43.4711 9.40356 42.5338 8.46622C41.5964 7.52888 40.3256 7.00159 39 7H9C7.6744 7.00159 6.40356 7.52888 5.46622 8.46622C4.52888 9.40356 4.00159 10.6744 4 12V33H3C2.46957 33 1.96086 33.2107 1.58579 33.5858C1.21071 33.9609 1 34.4696 1 35C1.00159 36.5908 1.63424 38.116 2.75911 39.2409C3.88399 40.3658 5.40919 40.9984 7 41H41C42.5908 40.9984 44.116 40.3658 45.2409 39.2409C46.3658 38.116 46.9984 36.5908 47 35C47 34.4696 46.7893 33.9609 46.4142 33.5858C46.0391 33.2107 45.5304 33 45 33ZM6 12C6 11.2044 6.31607 10.4413 6.87868 9.87868C7.44129 9.31607 8.20435 9 9 9H39C39.7956 9 40.5587 9.31607 41.1213 9.87868C41.6839 10.4413 42 11.2044 42 12V33H6V12ZM41 39H7C5.93913 39 4.92172 38.5786 4.17157 37.8284C3.42143 37.0783 3 36.0609 3 35H45C45 36.0609 44.5786 37.0783 43.8284 37.8284C43.0783 38.5786 42.0609 39 41 39Z" fill="black"/>
<path d="M10 22.952C10.1811 22.9521 10.3587 22.903 10.514 22.81L20.063 17.08L26.92 20.2C27.0772 20.2714 27.2501 20.3009 27.422 20.2856C27.5939 20.2704 27.7589 20.2109 27.901 20.113L36.536 14.167L36.366 15.016C36.3142 15.2759 36.3677 15.5457 36.5147 15.7662C36.6617 15.9867 36.8902 16.1399 37.15 16.192C37.2158 16.2057 37.2828 16.2124 37.35 16.212C37.5806 16.2121 37.804 16.1324 37.9826 15.9867C38.1612 15.8409 38.2839 15.6379 38.33 15.412L38.983 12.144C39.0352 11.884 38.9818 11.6139 38.8348 11.3931C38.6878 11.1724 38.4591 11.0191 38.199 10.967L34.931 10.313C34.8021 10.2868 34.6693 10.2863 34.5402 10.3115C34.4111 10.3367 34.2882 10.3872 34.1786 10.4599C34.069 10.5327 33.9749 10.6264 33.9016 10.7356C33.8282 10.8449 33.7772 10.9675 33.7514 11.0965C33.7255 11.2255 33.7254 11.3583 33.7509 11.4873C33.7765 11.6164 33.8273 11.7391 33.9003 11.8485C33.9734 11.9579 34.0674 12.0518 34.1768 12.1248C34.2862 12.1978 34.409 12.2485 34.538 12.274L35.489 12.464L27.235 18.149L20.417 15.049C20.2695 14.9819 20.1078 14.9516 19.946 14.9609C19.7842 14.9701 19.627 15.0185 19.488 15.102L9.48804 21.102C9.30422 21.2159 9.16226 21.3863 9.08344 21.5876C9.00463 21.789 8.9932 22.0104 9.05088 22.2188C9.10855 22.4272 9.23222 22.6113 9.40335 22.7435C9.57447 22.8757 9.78383 22.9488 10 22.952Z" fill="black"/>
<path d="M39 29V19C39 18.7348 38.8946 18.4804 38.7071 18.2929C38.5196 18.1054 38.2652 18 38 18H34C33.7348 18 33.4804 18.1054 33.2929 18.2929C33.1054 18.4804 33 18.7348 33 19V29H31V23C31 22.7348 30.8946 22.4804 30.7071 22.2929C30.5196 22.1054 30.2652 22 30 22H26C25.7348 22 25.4804 22.1054 25.2929 22.2929C25.1054 22.4804 25 22.7348 25 23V29H23V21C23 20.7348 22.8946 20.4804 22.7071 20.2929C22.5196 20.1054 22.2652 20 22 20H18C17.7348 20 17.4804 20.1054 17.2929 20.2929C17.1054 20.4804 17 20.7348 17 21V29H15V25C15 24.7348 14.8946 24.4804 14.7071 24.2929C14.5196 24.1054 14.2652 24 14 24H10C9.73478 24 9.48043 24.1054 9.29289 24.2929C9.10536 24.4804 9 24.7348 9 25V29C8.73478 29 8.48043 29.1054 8.29289 29.2929C8.10536 29.4804 8 29.7348 8 30C8 30.2652 8.10536 30.5196 8.29289 30.7071C8.48043 30.8946 8.73478 31 9 31H39C39.2652 31 39.5196 30.8946 39.7071 30.7071C39.8946 30.5196 40 30.2652 40 30C40 29.7348 39.8946 29.4804 39.7071 29.2929C39.5196 29.1054 39.2652 29 39 29ZM35 20H37V29H35V20ZM27 24H29V29H27V24ZM19 22H21V29H19V22ZM11 26H13V29H11V26Z" fill="black"/>
</svg>
